<?xml version="1.0" encoding="utf-8"?>
<!-- Generator: Adobe Illustrator 16.0.0, SVG Export Plug-In . SVG Version: 6.00 Build 0)  -->
<!DOCTYPE svg PUBLIC "-//W3C//DTD SVG 1.1//EN" "http://www.w3.org/Graphics/SVG/1.1/DTD/svg11.dtd">
<svg version="1.1" id="Layer_1" xmlns="http://www.w3.org/2000/svg" xmlns:xlink="http://www.w3.org/1999/xlink" x="0px" y="0px"
	 width="200px" height="200px" viewBox="0 0 200 200" enable-background="new 0 0 200 200" xml:space="preserve">
<circle fill="#FFFFFF" stroke="#000000" stroke-width="2" stroke-miterlimit="10" cx="100" cy="100" r="98"/>
<path fill="#006FBA" stroke="#000000" stroke-width="2" stroke-miterlimit="10" d="M149,124v19c0,6.494-5.266,12-11.76,12H62.76
	C56.265,155,51,149.494,51,143v-18.62v5.88V86h98v45"/>
<path fill="#FFFFFF" stroke="#000000" stroke-width="2" stroke-miterlimit="10" d="M117,102.129c0,2.138-1.733,3.871-3.872,3.871
	H85.872c-2.139,0-3.872-1.733-3.872-3.871v-0.258C82,99.733,83.733,98,85.872,98h27.256c2.139,0,3.872,1.733,3.872,3.871V102.129z"
	/>
<path id="_x3C_Path_x3E_" fill="#006FBA" stroke="#000000" stroke-width="2" stroke-miterlimit="10" d="M155.942,69.5
	c0,5.996-4.83,10.5-10.788,10.5H54.928C48.97,80,44.14,75.496,44.14,69.5l0,0c0-5.996,4.83-10.5,10.788-10.5h90.226
	C151.112,59,155.942,63.504,155.942,69.5L155.942,69.5z"/>
</svg>
